# xmcd CD database file
#
# Track frame offsets:
#	150
#	37105
#	57487
#	102569
#	154444
#
# Disc length: 2580 seconds
#
# Revision: 0
# Processed by: cddbd v1.5.2PL0 Copyright (c) Steve Scherf et al.
# Submitted via: Feurio! 1.68 - http://www.feurio.com
#
DISCID=470a1205
DTITLE=Robben Ford - Yoshi's   Oakland, CA   05-29-98   Disc 2
DYEAR=1900
DGENRE=
TTITLE0=Help The Poor
TTITLE1=Chevrolet
TTITLE2=In The Beginning
TTITLE3=Top Of The Hill
TTITLE4=Knockin'
EXTD=
EXTT0=
EXTT1=
EXTT2=
EXTT3=
EXTT4=
PLAYORDER=
